<svg data-v-423bf9ae="" xmlns="http://www.w3.org/2000/svg" viewBox="0 0 364 90" class="iconLeft"><!----><!----><!----><g data-v-423bf9ae="" id="190c06fd-f3bc-49b0-99dc-b75fe3f51539" fill="#000000" transform="matrix(4.709576222757963,0,0,4.709576222757963,166.23466666190205,1.8131884697778489)"><path d="M4.01 12.71Q3.12 12.71 2.33 12.39Q1.54 12.07 1.00 11.43Q0.46 10.79 0.31 9.88L0.31 9.88L2.03 9.44Q2.12 10.30 2.67 10.74Q3.22 11.18 4.03 11.18L4.03 11.18Q4.53 11.18 4.89 11.02Q5.26 10.86 5.44 10.58Q5.63 10.29 5.63 9.95L5.63 9.95Q5.63 9.53 5.37 9.24Q5.11 8.94 4.73 8.75Q4.35 8.56 3.68 8.29L3.68 8.29Q2.80 7.94 2.26 7.65Q1.72 7.35 1.34 6.82Q0.95 6.28 0.95 5.47L0.95 5.47Q0.95 4.64 1.36 4.04Q1.76 3.43 2.45 3.12Q3.14 2.80 3.96 2.80L3.96 2.80Q4.89 2.80 5.66 3.22Q6.43 3.64 6.90 4.50L6.90 4.50L5.46 5.38Q5.21 4.89 4.80 4.62Q4.39 4.35 3.90 4.35L3.90 4.35Q3.56 4.35 3.28 4.48Q3.01 4.61 2.85 4.84Q2.69 5.08 2.69 5.38L2.69 5.38Q2.69 5.75 2.93 6.01Q3.17 6.27 3.53 6.45Q3.90 6.62 4.53 6.87L4.53 6.87Q5.43 7.22 6.00 7.53Q6.56 7.83 6.96 8.39Q7.36 8.94 7.36 9.79L7.36 9.79Q7.36 10.68 6.91 11.34Q6.47 12.00 5.70 12.36Q4.94 12.71 4.01 12.71L4.01 12.71ZM8.84 15.54L10.10 12.42L7.42 5.78L9.26 5.78L10.98 10.52L12.73 5.78L14.56 5.78L10.66 15.54L8.84 15.54ZM15.51 12.61L15.51 5.78L17.17 5.78L17.17 6.57Q17.55 6.10 18.09 5.87Q18.63 5.63 19.18 5.63L19.18 5.63Q20.03 5.63 20.59 6.04Q21.14 6.44 21.40 7.09Q21.66 7.75 21.66 8.50L21.66 8.50L21.66 12.61L20.01 12.61L20.01 8.72Q20.01 8.03 19.67 7.60Q19.33 7.17 18.70 7.17L18.70 7.17Q17.97 7.17 17.57 7.59Q17.17 8.00 17.17 8.87L17.17 8.87L17.17 12.61L15.51 12.61ZM25.87 12.74Q25.20 12.74 24.72 12.50Q24.24 12.25 23.98 11.80Q23.73 11.34 23.73 10.72L23.73 10.72L23.73 7.17L22.63 7.17L22.63 5.78L23.75 5.78L23.75 4.08L25.38 2.89L25.38 5.78L27.10 5.78L27.10 7.17L25.38 7.17L25.38 10.42Q25.38 10.89 25.59 11.08Q25.79 11.27 26.15 11.27L26.15 11.27Q26.39 11.27 26.65 11.20Q26.90 11.13 27.10 11.03L27.10 11.03L27.10 12.54Q26.89 12.62 26.55 12.68Q26.20 12.74 25.87 12.74L25.87 12.74ZM30.55 12.74Q29.85 12.74 29.28 12.48Q28.72 12.22 28.39 11.71Q28.07 11.20 28.07 10.51L28.07 10.51Q28.07 9.46 28.80 9.00Q29.54 8.53 30.79 8.53L30.79 8.53L32.57 8.53Q32.57 7.87 32.22 7.48Q31.87 7.09 31.22 7.09L31.22 7.09Q30.67 7.09 30.27 7.36Q29.86 7.63 29.61 8.05L29.61 8.05L28.33 7.13Q28.86 6.41 29.56 6.02Q30.25 5.63 31.21 5.63L31.21 5.63Q32.12 5.63 32.79 5.99Q33.46 6.34 33.81 6.99Q34.16 7.63 34.16 8.46L34.16 8.46L34.16 12.61L32.79 12.61L32.68 11.63Q32.26 12.24 31.73 12.49Q31.21 12.74 30.55 12.74L30.55 12.74ZM30.79 11.33Q31.25 11.33 31.66 11.11Q32.06 10.89 32.31 10.52Q32.55 10.16 32.57 9.73L32.57 9.73L30.88 9.73Q30.34 9.73 30.06 9.97Q29.78 10.21 29.78 10.56L29.78 10.56Q29.78 10.91 30.04 11.12Q30.31 11.33 30.79 11.33L30.79 11.33ZM35.01 12.61L37.35 9.16L35.01 5.78L37.04 5.78L38.46 8.03L39.87 5.78L41.92 5.78L39.57 9.16L41.92 12.61L39.87 12.61L38.46 10.31L37.04 12.61L35.01 12.61Z"></path></g><defs data-v-423bf9ae=""><linearGradient data-v-423bf9ae="" gradientTransform="rotate(25)" id="ab1e519b-b4ec-44d5-af6b-4522b2b79ef8" x1="0%" y1="0%" x2="100%" y2="0%"><stop data-v-423bf9ae="" offset="0%" style="stop-color: rgb(0, 21, 214); stop-opacity: 1;"></stop><stop data-v-423bf9ae="" offset="100%" style="stop-color: rgb(9, 137, 251); stop-opacity: 1;"></stop></linearGradient></defs><g data-v-423bf9ae="" id="fdea6e7a-8fbe-47e8-87fb-d600e39dd949" transform="matrix(1.1538461538461537,0,0,1.1538461538461537,0.15283793669480872,-28.84615384615384)" stroke="none" fill="url(#ab1e519b-b4ec-44d5-af6b-4522b2b79ef8)"><path d="M74.313 25l-28.094 78h8.469l28.094-78h-8.469zM38 36.25l-2.188 1.406-34 22-1.813 1.156v4.25l1.688 1.219 34 24L38 91.875v-9.781L11.156 63.125 38 45.75v-9.5zm52 0v9.5l26.844 17.375L90 82.094v9.781l2.313-1.594 34-24 1.688-1.219v-4.25l-1.813-1.156-34-22L90 36.25z"></path></g><!----></svg>